:version 1.10
:name ASF
:units
  mass 1
  length 1
  angle deg
:documentation
  ASF file generated by Kaydara
:root
  axis xyz
  order  tx ty tz rx ry rz
  position 0 0 0
  orientation 0 0 0
:bonedata
  begin
    id 1
    name RightUpLegDummy
    direction -0.718183 -0.695806 0.00816078
    length 4.904
    axis 0 0 0 xyz
  end
  begin
    id 2
    name RightUpLeg
    direction -0.00334265 -0.999142 0.0412837
    length 17.4976
    axis -0.59612 0.00940841 -0.192072 xyz
    dof rx ry rz
  end
  begin
    id 3
    name RightLeg
    direction 0.000365068 -0.988824 -0.149089
    length 16.5821
    axis 6.58657 0.0604092 -0.318554 xyz
    dof rx ry rz
  end
  begin
    id 4
    name RightFoot
    direction 0.00079069 -0.460991 0.887405
    length 3.77069
    axis 0.000105557 -0.120464 -0.188919 xyz
    dof rx ry rz
  end
  begin
    id 5
    name RightToes
    direction 0.00124768 -0.014065 0.9999
    length 3.85082
    axis 0.00053932 0.542178 -0.142707 xyz
    dof rx ry rz
  end
  begin
    id 6
    name SpineDummy
    direction 8.3039e-015 1 4.58682e-016
    length 4.6813
    axis 0 0 0 xyz
  end
  begin
    id 7
    name Spine
    direction 4.12799e-006 0.999988 0.00494944
    length 10.1015
    axis -0.00149944 0.000129667 -0.000235877 xyz
    dof rx ry rz
  end
  begin
    id 8
    name Spine1
    direction 0 0 0
    length 0
    axis -0.00160567 0.000129431 -0.000308381 xyz
    dof rx ry rz
  end
  begin
    id 9
    name HEadDummy
    direction 5.38513e-006 0.999999 0.00127044
    length 3.43865
    axis -0.00160567 0.000129431 -0.000308381 xyz
  end
  begin
    id 10
    name HEad
    direction -0.0226495 0.980942 0.192974
    length 5.12695
    axis -0.00160642 -0.114462 -0.000307946 xyz
    dof rx ry rz
  end
  begin
    id 11
    name LeftShoulder1Dummy
    direction 0.99889 -0.0402564 -0.0244456
    length 3.5433
    axis -0.00160567 0.000129431 -0.000308381 xyz
  end
  begin
    id 12
    name LeftShoulder1
    direction 0.999464 -0.00142945 0.0326977
    length 4.05031
    axis 0.393425 -0.0796525 -0.0507861 xyz
    dof rx ry rz
  end
  begin
    id 13
    name LeftArm
    direction 0.998564 -0.000899612 -0.053557
    length 10.3537
    axis -22.9476 0.126974 0.960871 xyz
    dof rx ry rz
  end
  begin
    id 14
    name LeftForeArm
    direction 0.998903 0.00865904 0.0460121
    length 8.70632
    axis -9.91856 -0.0656997 -0.178106 xyz
    dof rx ry rz
  end
  begin
    id 15
    name LeftHand
    direction 0.992938 -0.0411687 0.11126
    length 5.32135
    axis -0.00981066 -0.00340928 0.18486 xyz
    dof rx ry rz
  end
  begin
    id 16
    name RightShoulderDummy
    direction -0.998891 -0.0402456 -0.0244411
    length 3.5433
    axis -0.00160567 0.000129431 -0.000308381 xyz
  end
  begin
    id 17
    name RightShoulder
    direction -0.999353 -0.00388479 0.0357579
    length 4.05031
    axis 1.48787 0.256014 0.157284 xyz
    dof rx ry rz
  end
  begin
    id 18
    name RightArm
    direction -0.998583 -0.000660455 -0.0532032
    length 10.3947
    axis -22.4211 -0.109147 -0.943573 xyz
    dof rx ry rz
  end
  begin
    id 19
    name RightForeArm
    direction -0.998898 0.00868588 0.0461311
    length 8.68355
    axis -9.92343 0.0658342 0.178556 xyz
    dof rx ry rz
  end
  begin
    id 20
    name RightHand
    direction -0.992843 -0.0414545 0.112004
    length 5.28593
    axis -0.00982288 0.00332907 -0.185539 xyz
    dof rx ry rz
  end
  begin
    id 21
    name LeftUpLegDummy
    direction 0.718183 -0.695806 0.00816078
    length 4.904
    axis 0 0 0 xyz
  end
  begin
    id 22
    name LeftUpLeg
    direction 0.00445374 -0.999139 0.0412407
    length 17.4976
    axis -0.593655 -0.0138231 0.255969 xyz
    dof rx ry rz
  end
  begin
    id 23
    name LeftLeg
    direction -0.00154847 -0.988829 -0.149046
    length 16.5821
    axis 6.5841 -0.0555156 0.250722 xyz
    dof rx ry rz
  end
  begin
    id 24
    name LeftFoot
    direction -0.00417678 -0.460985 0.887398
    length 3.77069
    axis 5.53694e-005 4.88088e-005 -0.000136194 xyz
    dof rx ry rz
  end
  begin
    id 25
    name LeftToes
    direction 0.00818061 -0.00485256 0.999955
    length 3.85048
    axis 6.41179e-005 4.88477e-005 -0.000136145 xyz
    dof rx ry rz
  end
:hierarchy
  begin
    root RightUpLegDummy SpineDummy LeftUpLegDummy
    RightUpLegDummy RightUpLeg
    RightUpLeg RightLeg
    RightLeg RightFoot
    RightFoot RightToes
    SpineDummy Spine
    Spine Spine1
    Spine1 HEadDummy LeftShoulder1Dummy RightShoulderDummy
    HEadDummy HEad
    LeftShoulder1Dummy LeftShoulder1
    LeftShoulder1 LeftArm
    LeftArm LeftForeArm
    LeftForeArm LeftHand
    RightShoulderDummy RightShoulder
    RightShoulder RightArm
    RightArm RightForeArm
    RightForeArm RightHand
    LeftUpLegDummy LeftUpLeg
    LeftUpLeg LeftLeg
    LeftLeg LeftFoot
    LeftFoot LeftToes
  end

:SAMPLES-PER-SECOND 30
:FULLY-SPECIFIED
:DEGREES
92
root  0.511753 40.2996 0.160716 -171.126 -86.1468 171.48
RightUpLeg  3.27101 -6.20059 -9.36584
RightLeg  -4.51464 -10.4784 0.299181
RightFoot  -0.754505 -0.756406 8.09471
RightToes  6.35927e-011 1.30204e-014 -6.03759e-014
Spine  -2.53848 -0.617064 -1.07768
Spine1  7.76354 -0.525095 -0.303825
HEad  -0.470841 4.92016 -2.21663
LeftShoulder1  1.44895 -2.15127 -19.0964
LeftArm  -18.8768 16.3125 -52.2142
LeftForeArm  16.3693 -6.90021 -8.93793
LeftHand  -0.134887 -1.46941 2.42628
RightShoulder  0.550457 -1.39275 19.8871
RightArm  -14.1927 -4.5328 56.6784
RightForeArm  35.4859 -0.359272 12.1355
RightHand  -0.0516421 -2.66727 -1.64191
LeftUpLeg  5.39712 11.1651 13.8711
LeftLeg  -2.38247 22.1386 -1.78206
LeftFoot  -1.117 0.70286 -7.77543
LeftToes  1.82556e-010 9.56953e-011 7.56925e-011
93
root  0.462516 40.2919 0.161382 -171.507 -85.9537 171.899
RightUpLeg  3.12014 -6.11744 -9.31811
RightLeg  -4.23363 -10.3563 0.133427
RightFoot  -0.859343 -0.761553 8.22432
RightToes  6.35927e-011 1.30204e-014 -6.03759e-014
Spine  -2.36298 -0.515868 -0.735644
Spine1  7.49568 -0.338069 -0.670358
HEad  -0.64713 4.86232 -1.92396
LeftShoulder1  1.57335 -2.59024 -19.3087
LeftArm  -18.4469 16.633 -53.5511
LeftForeArm  15.8044 -6.74181 -9.20925
LeftHand  -0.157246 -1.00294 2.98456
RightShoulder  0.609509 -1.17421 19.9483
RightArm  -13.3995 -5.02346 58.6202
RightForeArm  35.1068 -1.45507 12.6778
RightHand  -0.0860983 -2.84833 -3.28394
LeftUpLeg  5.3613 11.2416 13.9042
LeftLeg  -2.06205 22.2665 -1.72147
LeftFoot  -1.33183 0.678796 -7.65307
LeftToes  1.82556e-010 9.56953e-011 7.56925e-011
94
root  0.40224 40.2878 0.159918 -172.499 -85.8584 172.752
RightUpLeg  3.3577 -6.08647 -9.27993
RightLeg  -4.24243 -10.1918 0.0733755
RightFoot  -0.962632 -0.749357 8.16452
RightToes  6.35927e-011 1.30204e-014 -6.03759e-014
Spine  -2.08228 -0.465796 -0.357547
Spine1  7.32989 -0.200606 -1.0751
HEad  -0.811953 4.70802 -1.51792
LeftShoulder1  1.72507 -3.12219 -19.5456
LeftArm  -17.0644 16.9377 -54.2814
LeftForeArm  15.4475 -7.07751 -9.65643
LeftHand  -0.127173 -0.732102 2.50542
RightShoulder  0.675481 -0.929259 20.0127
RightArm  -9.70415 -4.9965 59.8114
RightForeArm  36.8826 -1.52543 13.9142
RightHand  -0.0993391 -3.3505 -4.87123
LeftUpLeg  5.48883 11.3784 14.0481
LeftLeg  -1.69425 22.1623 -1.63132
LeftFoot  -1.53357 0.66206 -7.60302
LeftToes  1.82556e-010 9.56953e-011 7.56925e-011
95
root  0.351352 40.287 0.173715 -171.87 -85.6896 172.091
RightUpLeg  3.3209 -6.11948 -9.36891
RightLeg  -4.01919 -9.98715 -0.0374671
RightFoot  -1.05865 -0.749008 8.23027
RightToes  6.35927e-011 1.30204e-014 -6.03759e-014
Spine  -2.0623 -0.38638 -0.182947
Spine1  7.36546 -0.0420026 -1.36395
HEad  -1.04369 4.53956 -1.02067
LeftShoulder1  1.8884 -3.68552 -19.8006
LeftArm  -14.7559 17.1445 -54.6724
LeftForeArm  15.2683 -8.00307 -10.0882
LeftHand  -0.199845 -0.740447 3.8767
RightShoulder  0.796506 -0.547077 20.716
RightArm  -2.43372 -4.43454 59.7644
RightForeArm  35.7643 -0.069412 15.2349
RightHand  -0.126075 -3.88484 -8.52002
LeftUpLeg  5.52945 11.3076 13.9273
LeftLeg  -1.44325 22.3961 -1.50012
LeftFoot  -1.68114 0.654591 -7.62076
LeftToes  1.82556e-010 9.56953e-011 7.56925e-011
